<?xml version="1.0" encoding="UTF-8"?>
<svg id="Layer_1" data-name="Layer 1" xmlns="http://www.w3.org/2000/svg" xmlns:xlink="http://www.w3.org/1999/xlink" viewBox="0 0 1024 1024">
  <defs>
    <style>
      .cls-1 {
        fill: #ffce07;
      }

      .cls-1, .cls-2, .cls-3 {
        stroke-width: 0px;
      }

      .cls-2 {
        fill: none;
      }

      .cls-3 {
        fill: #fff;
      }

      .cls-4 {
        clip-path: url(#clippath);
      }
    </style>
    <clipPath id="clippath">
      <rect class="cls-2" x="1.14" y="1.07" width="1022.86" height="1022.93"/>
    </clipPath>
  </defs>
  <g class="cls-4">
    <g>
      <path class="cls-1" d="m202.97,839.25H17l66.67-378.12h260.49c20.65,0,37.53-5.82,51.54-17.8,14.07-12.01,22.63-27.6,26.16-47.71l.03-.2c3.98-19.38,1.13-34.14-8.76-45.12-10.09-11.2-25.15-16.64-46.07-16.64H106.12l31.45-178.37h257.95c68.83,0,124.44,23.86,165.25,70.9,40.79,47.05,56.17,108.06,45.72,181.32-9.77,69.1-40.4,125.5-91.03,167.64-50.53,42.05-116.29,63.37-195.46,63.37h-81.67l-35.39,200.72.02.02Zm-168.18-14.93h155.66l35.39-200.72h94.2c75.58,0,138.12-20.16,185.9-59.92,47.68-39.7,76.54-92.93,85.78-158.26,9.82-68.8-4.38-125.81-42.22-169.45-37.86-43.63-89.67-65.76-153.97-65.76h-245.41l-26.18,148.51h243.17c25.03,0,44.26,7.27,57.17,21.58,13.07,14.53,17.2,34.04,12.29,58.01-4.13,23.28-14.62,42.24-31.16,56.37-16.61,14.18-37.21,21.38-61.23,21.38H96.21l-61.4,348.26-.03-.02Z"/>
      <path class="cls-3" d="m981.46,319.85l29.31-163.17h-434.79l-5.89,33.54c5.03,4.86,9.87,9.97,14.53,15.35,23.56,27.17,39.98,58.73,48.82,93.78,8.63,34.21,10.07,72.11,4.28,112.61-10.92,77.09-45.26,140.15-102.08,187.46-13.3,11.08-27.54,20.84-42.62,29.33l-37.23,211.88h439.67l28.33-164.15h-263.81l17.58-100.63h234.49l29.31-160.24h-236.45l17.58-95.75h258.93Z"/>
    </g>
  </g>
</svg>