<?xml version="1.0" encoding="UTF-8"?>
<svg id="katman_1" data-name="katman 1" xmlns="http://www.w3.org/2000/svg" viewBox="0 0 1920 1080">
  <defs>
    <style>
      .cls-1 {
        fill: none;
        stroke: #ffcf07;
        stroke-miterlimit: 10;
        stroke-width: 8px;
      }

      .cls-2 {
        fill: #fff;
        stroke-width: 0px;
      }
    </style>
  </defs>
  <g>
    <path class="cls-1" d="m887.29,546.3c-25.49,0-47.01-6.37-64.55-19.12-17.54-12.74-29.46-28.56-35.76-47.46-6.3-18.89-7.5-38.69-3.6-59.38,6-31.19,21.06-57.58,45.21-79.17,24.14-21.59,54.35-32.39,90.64-32.39s63.42,12.82,82.32,38.46,25.49,54.51,19.79,86.59c-5.4,30.59-20.4,56.98-44.98,79.17-24.59,22.2-54.28,33.29-89.07,33.29Zm5.85-71.97c13.19,0,24.74-4.34,34.64-13.04,9.9-8.69,16.04-19.94,18.44-33.74,2.4-13.79.22-25.04-6.52-33.74-6.75-8.69-16.72-13.04-29.91-13.04s-24.29,4.35-34.19,13.04c-9.9,8.7-16.05,19.95-18.44,33.74-2.4,13.8-.23,25.04,6.52,33.74,6.75,8.7,16.57,13.04,29.46,13.04Z"/>
    <path class="cls-1" d="m1035.73,540l25.28-144.48,32.17-183.92,74.8-1.96-32.76,187.25-25.04,143.11h-74.45Z"/>
    <path class="cls-1" d="m1297.08,308.79c33.88,0,60.43,11.47,79.62,34.41,19.19,22.94,25.79,50.91,19.79,83.89-1.2,9-3.75,18.3-7.65,27.89h-154.29c4.2,18.3,18.59,27.44,43.18,27.44,17.99,0,32.84-5.4,44.53-16.19l47.68,43.63c-26.09,24.29-58.78,36.44-98.06,36.44s-68.3-11.84-87.94-35.54c-19.64-23.69-26.62-52.92-20.92-87.72,5.4-32.98,20.69-60.28,45.88-81.87,25.19-21.59,54.58-32.39,88.17-32.39Zm-53.53,94.01h85.02c-1.5-20.69-13.35-31.04-35.54-31.04s-38.68,10.35-49.48,31.04Z"/>
  </g>
  <g>
    <path class="cls-2" d="m588.01,583.34h-43.25l-2.94,15.99h39.49l-4.9,26.76h-39.17l-2.94,16.81h44.06l-4.73,27.42h-73.44l20.07-114.24h72.62l-4.9,27.25Z"/>
    <path class="cls-2" d="m650.14,586.44c8.79,0,15.54,3.07,20.27,9.22,4.72,6.15,6.16,14.76,4.31,25.85l-8.61,48.82h-27.01l8-45.37c.65-4.35.05-7.59-1.8-9.71-1.85-2.12-4.63-3.18-8.33-3.18-4.14,0-7.6,1.25-10.38,3.75-2.78,2.5-4.6,6.2-5.47,11.1v-.21l-7.72,43.62h-27.01l14.44-81.6h27.01l-1.45,8.21c6.18-7,14.1-10.49,23.76-10.49Z"/>
    <path class="cls-2" d="m753.49,588.73h26.68l-13.97,78.3c-2.28,13.18-7.79,22.87-16.52,29.08-8.74,6.21-19.25,9.31-31.54,9.31-9.14,0-17.08-1.69-23.83-5.06-6.75-3.37-11.53-8.32-14.36-14.85l23.99-12.57c3.04,5.88,8.59,8.81,16.65,8.81,5,0,9.19-1.23,12.57-3.68,3.37-2.45,5.49-6.13,6.36-11.03l1.09-6.1c-6.42,5.6-14.15,8.4-23.17,8.4-8.16,0-14.96-2.09-20.4-6.28-5.44-4.19-9.11-9.44-11.02-15.75-1.9-6.31-2.31-13.16-1.22-20.56,1.63-10.88,6.39-20.32,14.28-28.32,7.89-8,17.76-12,29.62-12,10.56,0,18.25,4.03,23.05,12.08l1.74-9.79Zm-27.38,55.98c4.79,0,9.03-1.4,12.73-4.21,3.7-2.8,6.15-6.42,7.34-10.85l.6-3.37c.43-4.47-.7-8.11-3.4-10.95-2.7-2.83-6.45-4.25-11.24-4.25-5.12,0-9.55,1.58-13.3,4.73-3.75,3.16-6.07,7.18-6.94,12.08-.87,4.9,0,8.92,2.61,12.08,2.61,3.16,6.47,4.73,11.59,4.73Z"/>
    <path class="cls-2" d="m781.56,670.33l14.44-81.6h27.01l-14.44,81.6h-27.01Zm29.05-88.62c-4.03,0-7.24-1.44-9.63-4.32-2.39-2.88-3.21-6.28-2.45-10.2.76-4.02,2.8-7.48,6.12-10.36,3.32-2.88,6.99-4.33,11.02-4.33s7.23,1.44,9.63,4.33c2.39,2.88,3.26,6.34,2.61,10.36-.87,3.92-2.99,7.32-6.36,10.2-3.37,2.88-7.02,4.32-10.93,4.32Z"/>
    <path class="cls-2" d="m888.08,586.44c8.79,0,15.54,3.07,20.27,9.22,4.72,6.15,6.16,14.76,4.31,25.85l-8.61,48.82h-27.01l8-45.37c.65-4.35.05-7.59-1.8-9.71-1.85-2.12-4.63-3.18-8.33-3.18-4.14,0-7.6,1.25-10.38,3.75-2.78,2.5-4.6,6.2-5.47,11.1v-.21l-7.72,43.62h-27.01l14.44-81.6h27.01l-1.45,8.21c6.18-7,14.1-10.49,23.76-10.49Z"/>
    <path class="cls-2" d="m970.71,586.44c12.29,0,21.92,4.16,28.89,12.48,6.96,8.32,9.36,18.47,7.18,30.44-.44,3.26-1.36,6.64-2.77,10.12h-55.98c1.52,6.64,6.75,9.96,15.67,9.96,6.53,0,11.91-1.96,16.16-5.88l17.3,15.83c-9.47,8.81-21.33,13.22-35.58,13.22s-24.78-4.3-31.91-12.89c-7.13-8.59-9.66-19.2-7.59-31.82,1.96-11.97,7.51-21.87,16.65-29.7s19.8-11.75,31.99-11.75Zm-19.42,34.11h30.84c-.54-7.51-4.84-11.26-12.89-11.26s-14.04,3.75-17.95,11.26Z"/>
    <path class="cls-2" d="m1062.92,586.44c12.29,0,21.92,4.16,28.89,12.48,6.96,8.32,9.36,18.47,7.18,30.44-.44,3.26-1.36,6.64-2.77,10.12h-55.98c1.52,6.64,6.74,9.96,15.67,9.96,6.53,0,11.91-1.96,16.16-5.88l17.3,15.83c-9.47,8.81-21.33,13.22-35.58,13.22s-24.78-4.3-31.91-12.89c-7.13-8.59-9.66-19.2-7.59-31.82,1.96-11.97,7.51-21.87,16.65-29.7s19.8-11.75,31.99-11.75Zm-19.42,34.11h30.84c-.54-7.51-4.84-11.26-12.89-11.26s-14.04,3.75-17.95,11.26Z"/>
    <path class="cls-2" d="m1141.65,604.01c2.5-5.53,6.2-9.73,11.1-12.61,4.9-2.87,10.39-4.31,16.48-4.31l-5.06,30.03c-6.2-.87-12.13.22-17.77,3.26-5.65,3.04-9.15,8.43-10.5,16.14l.48-2.74-6.47,36.54h-27.01l14.44-81.6h27.01l-2.71,15.29Z"/>
    <path class="cls-2" d="m1164.92,670.33l14.44-81.6h27.01l-14.44,81.6h-27.01Zm29.05-88.62c-4.03,0-7.24-1.44-9.63-4.32-2.39-2.88-3.21-6.28-2.45-10.2.76-4.02,2.8-7.48,6.12-10.36,3.32-2.88,6.99-4.33,11.02-4.33s7.23,1.44,9.63,4.33c2.39,2.88,3.26,6.34,2.61,10.36-.87,3.92-2.99,7.32-6.37,10.2-3.37,2.88-7.02,4.32-10.93,4.32Z"/>
    <path class="cls-2" d="m1271.44,586.44c8.79,0,15.54,3.07,20.26,9.22,4.72,6.15,6.16,14.76,4.31,25.85l-8.61,48.82h-27.01l8-45.37c.65-4.35.05-7.59-1.8-9.71-1.85-2.12-4.63-3.18-8.33-3.18-4.14,0-7.6,1.25-10.38,3.75-2.78,2.5-4.6,6.2-5.47,11.1v-.21l-7.72,43.62h-27.01l14.44-81.6h27.01l-1.45,8.21c6.18-7,14.1-10.49,23.76-10.49Z"/>
    <path class="cls-2" d="m1374.79,588.73h26.68l-13.97,78.3c-2.28,13.18-7.79,22.87-16.52,29.08-8.74,6.21-19.25,9.31-31.54,9.31-9.14,0-17.08-1.69-23.83-5.06-6.75-3.37-11.53-8.32-14.36-14.85l23.99-12.57c3.04,5.88,8.59,8.81,16.65,8.81,5,0,9.19-1.23,12.57-3.68,3.37-2.45,5.49-6.13,6.37-11.03l1.09-6.1c-6.42,5.6-14.15,8.4-23.17,8.4-8.16,0-14.96-2.09-20.4-6.28-5.44-4.19-9.11-9.44-11.02-15.75-1.91-6.31-2.31-13.16-1.22-20.56,1.63-10.88,6.39-20.32,14.28-28.32,7.89-8,17.76-12,29.62-12,10.56,0,18.25,4.03,23.05,12.08l1.74-9.79Zm-27.38,55.98c4.79,0,9.03-1.4,12.73-4.21,3.7-2.8,6.15-6.42,7.34-10.85l.6-3.37c.43-4.47-.7-8.11-3.4-10.95-2.7-2.83-6.45-4.25-11.24-4.25-5.12,0-9.55,1.58-13.3,4.73-3.75,3.16-6.07,7.18-6.94,12.08-.87,4.9,0,8.92,2.61,12.08,2.61,3.16,6.47,4.73,11.59,4.73Z"/>
  </g>
  <path class="cls-1" d="m768.42,257.28c-18.6-21.44-43.63-32.16-75.12-32.16h-118.45l-13.56,76.92h118.63c10.8,0,18.89,3,24.29,9,5.4,6,7.04,14.1,4.95,24.29-1.8,10.2-6.3,18.37-13.5,24.52-7.2,6.15-16.05,9.22-26.54,9.22h-119.65l-30.14,170.93h80.39l16.66-94.46h41.38c36.58,0,66.5-9.67,89.74-29.01,23.24-19.34,37.11-44.91,41.61-76.7,4.79-33.58-2.1-61.1-20.69-82.54Z"/>
</svg>